<svg width="405" height="111" fill="none" xmlns="http://www.w3.org/2000/svg"><g clip-path="url(#clip0)" fill="#444E69"><path d="M121.752 21.724c3.175 0 5.693-1.08 7.774-3.134 2.08-2.053 3.175-4.647 3.175-7.782 0-3.134-.986-5.728-3.175-7.782C127.445 1.081 124.818 0 121.752 0c-3.175 0-5.694 1.08-7.774 3.134s-3.175 4.648-3.175 7.782c0 3.135.985 5.729 3.175 7.782 2.08 1.946 4.599 3.026 7.774 3.026zm263.102 0c3.175 0 5.693-1.08 7.774-3.134 2.08-2.053 3.175-4.647 3.175-7.782 0-3.134-.985-5.728-3.175-7.782C390.547 1.081 387.92 0 384.854 0c-3.175 0-5.693 1.08-7.774 3.134-2.08 2.054-3.175 4.648-3.175 7.782 0 3.135.985 5.729 3.175 7.782 1.971 1.946 4.599 3.026 7.774 3.026zM61.204 32.64h5.803c5.256.325 11.825 1.514 9.964 6.053L64.489 68.848 59.89 79.981 41.278 44.206c-2.299-4.324-5.036-7.566-8.211-9.836-3.176-2.27-7.446-3.35-12.92-3.35H0v1.513h.11c.875 0 6.897.216 9.963 6.052l-.219-.324v.108l.766 1.513 36.789 70.145h4.708L81.46 38.585c1.642-4.323 6.898-5.728 11.058-6.052h5.694v-1.514H60.985v1.622h.22zm179.124 74.577c-6.131 0-6.131-6.052-6.131-6.052v-38.91c0-6.485-1.533-12.321-4.598-17.293-3.066-4.972-7.555-8.97-13.468-11.78-5.912-2.811-12.919-4.216-21.022-4.216-9.525 0-16.751 1.621-21.569 4.972-4.817 3.35-7.226 7.35-7.226 12.105 0 3.567 1.095 6.377 3.175 8.43 2.08 2.162 4.927 3.135 8.54 3.135 1.095 0 2.518-.108 4.27-.325l2.081-.432V33.505l2.189-.756c1.533-.54 3.395-.757 5.584-.757 5.803 0 10.183 2.162 12.92 6.485 2.847 4.323 4.27 12.213 4.27 23.67v4.648c-8.65.432-18.613 1.513-29.781 3.458-5.036.865-9.635 1.73-13.905 2.81a25.5 25.5 0 00-2.847 5.08c-1.752 3.891-2.628 7.89-2.628 11.89 0 6.052 2.519 11.132 7.446 15.023 5.036 3.89 12.153 5.944 21.35 5.944 7.007 0 12.81-2.378 17.518-7.025a33.351 33.351 0 005.146-7.026c.876 2.378 1.971 4.324 3.394 5.945 3.395 3.783 8.322 5.728 14.563 5.728h10.839v-1.405h-.11zm-31.204-14.05c-1.204 2.593-2.409 4.647-3.613 6.16-3.175 4.107-6.569 6.161-10.511 6.161-2.737 0-4.927-1.405-6.679-4.215-1.752-2.81-2.628-7.026-2.628-12.862 0-3.783.548-7.674 1.533-11.673.548-1.945.986-3.567 1.533-4.647 1.095-.108 3.285-.325 6.569-.757 4.38-.54 8.979-.757 13.687-.757v22.59h.109zm-73.358 7.889V44.962c0-9.295-4.708-13.943-14.014-13.943h-17.08v1.514c6.131 0 6.131 6.052 6.131 6.052v62.471s0 6.053-6.131 6.053v1.513h37.226v-1.513c-6.132.108-6.132-6.053-6.132-6.053zm206.059 0v-46.69c0-4.324-1.314-8.431-3.942-12.43-2.627-3.891-6.241-7.134-10.839-9.511-4.599-2.378-9.854-3.675-15.657-3.675-7.007 0-12.81 2.378-17.518 7.025-1.971 1.946-3.723 4.323-5.146 7.025-.986-2.27-2.081-4.215-3.394-5.728-3.395-3.783-8.103-5.728-14.015-5.836h-11.277v1.513c6.131 0 6.131 6.052 6.131 6.052v62.472s0 6.052-6.131 6.052v1.513h37.226v-1.513c-4.927 0-5.913-3.891-6.132-5.404V46.583c.986-2.377 2.081-4.431 3.395-6.16 3.175-4.108 6.678-6.161 10.62-6.161 3.175 0 5.803 1.73 8.212 5.188 2.299 3.458 3.503 8.43 3.503 15.023v40.315c0 9.295 4.708 13.942 14.015 13.942h17.19v-1.513c-6.241 0-6.241-6.161-6.241-6.161zm57.044 0V44.962c0-9.295-4.708-13.943-14.015-13.943h-17.08v1.514c6.131 0 6.131 6.052 6.131 6.052v62.363s0 6.053-6.131 6.053v1.513H405v-1.513c-6.131.216-6.131-5.945-6.131-5.945z"/></g><defs><clipPath id="clip0"><path fill="#fff" d="M0 0h405v111H0z"/></clipPath></defs></svg>