<svg width="162" height="45" fill="none" xmlns="http://www.w3.org/2000/svg"><g clip-path="url(#clip0)" fill="#444E69"><path d="M48.7 8.807c1.27 0 2.278-.438 3.11-1.27.832-.833 1.27-1.885 1.27-3.155 0-1.271-.394-2.323-1.27-3.155C50.978.438 49.927 0 48.7 0c-1.27 0-2.277.438-3.109 1.27-.832.833-1.27 1.885-1.27 3.156 0 1.27.394 2.322 1.27 3.154.832.789 1.84 1.227 3.11 1.227zm105.242 0c1.27 0 2.277-.438 3.109-1.27.832-.833 1.27-1.885 1.27-3.155 0-1.271-.394-2.323-1.27-3.155C156.219.438 155.168 0 153.942 0c-1.27 0-2.278.438-3.11 1.27-.832.833-1.27 1.885-1.27 3.156 0 1.27.394 2.322 1.27 3.154.788.789 1.84 1.227 3.11 1.227zm-129.46 4.426h2.32c2.103.131 4.73.613 3.986 2.453l-4.992 12.225-1.84 4.514-7.445-14.504c-.92-1.753-2.015-3.067-3.285-3.987-1.27-.92-2.978-1.359-5.168-1.359H0v.614h.044c.35 0 2.759.088 3.985 2.454l-.087-.132v.044l.306.613 14.715 28.438h1.884l11.737-28.963c.657-1.753 2.76-2.323 4.423-2.454h2.278v-.614h-14.89v.658h.087zm71.649 30.233c-2.452 0-2.452-2.453-2.452-2.453V25.239c0-2.63-.613-4.996-1.84-7.011-1.226-2.016-3.022-3.637-5.386-4.776-2.365-1.14-5.168-1.71-8.41-1.71-3.81 0-6.7.658-8.627 2.016-1.927 1.359-2.89 2.98-2.89 4.908 0 1.446.438 2.585 1.27 3.418.832.876 1.97 1.27 3.416 1.27.438 0 1.007-.043 1.708-.131l.832-.175v-9.465l.876-.306c.613-.22 1.357-.307 2.233-.307 2.322 0 4.073.876 5.168 2.629 1.139 1.753 1.708 4.951 1.708 9.596v1.884c-3.46.175-7.445.613-11.912 1.402-2.015.35-3.854.701-5.562 1.14a10.368 10.368 0 00-1.139 2.059c-.7 1.577-1.051 3.198-1.051 4.82 0 2.453 1.007 4.513 2.978 6.09 2.015 1.577 4.861 2.41 8.54 2.41 2.803 0 5.124-.964 7.008-2.848a13.511 13.511 0 002.058-2.848c.35.964.788 1.752 1.358 2.41 1.357 1.533 3.328 2.322 5.824 2.322h4.336v-.57h-.044zM83.65 37.77c-.482 1.052-.964 1.884-1.446 2.498-1.27 1.665-2.627 2.497-4.204 2.497-1.095 0-1.97-.57-2.671-1.709-.701-1.139-1.052-2.848-1.052-5.214 0-1.533.22-3.11.614-4.732.218-.789.394-1.446.613-1.884a75.46 75.46 0 002.627-.307c1.752-.219 3.592-.307 5.475-.307v9.158h.044zm-29.343 3.199V18.228c0-3.768-1.884-5.653-5.606-5.653h-6.832v.614c2.452 0 2.452 2.454 2.452 2.454v25.326s0 2.454-2.452 2.454v.613h14.89v-.613c-2.452.043-2.452-2.454-2.452-2.454zm82.423 0v-18.93c0-1.752-.526-3.417-1.577-5.038-1.051-1.578-2.496-2.892-4.335-3.856-1.84-.964-3.942-1.49-6.263-1.49-2.803 0-5.124.964-7.008 2.848a11.584 11.584 0 00-2.058 2.849c-.394-.92-.832-1.71-1.358-2.323-1.357-1.533-3.24-2.322-5.605-2.366h-4.511v.614c2.452 0 2.452 2.453 2.452 2.453v25.326s0 2.454-2.452 2.454v.614h14.89v-.614c-1.971 0-2.365-1.577-2.452-2.19V18.885c.394-.965.832-1.797 1.357-2.498 1.27-1.666 2.672-2.498 4.248-2.498 1.27 0 2.322.701 3.285 2.103.92 1.402 1.402 3.418 1.402 6.09v16.344c0 3.769 1.883 5.653 5.605 5.653h6.876v-.614c-2.496 0-2.496-2.497-2.496-2.497zm22.817 0V18.228c0-3.768-1.883-5.653-5.605-5.653h-6.833v.614c2.453 0 2.453 2.454 2.453 2.454v25.282s0 2.454-2.453 2.454v.613H162v-.613c-2.453.087-2.453-2.41-2.453-2.41z"/></g><defs><clipPath id="clip0"><path fill="#fff" d="M0 0h162v45H0z"/></clipPath></defs></svg>