<svg width="405" height="111" viewBox="0 0 405 111" fill="none" xmlns="http://www.w3.org/2000/svg">
<g clip-path="url(#clip0)">
<path d="M121.752 21.7244C124.927 21.7244 127.445 20.6436 129.526 18.5901C131.606 16.5365 132.701 13.9425 132.701 10.8082C132.701 7.67381 131.715 5.07984 129.526 3.02629C127.445 1.08082 124.818 0 121.752 0C118.577 0 116.058 1.08082 113.978 3.13437C111.898 5.18793 110.803 7.78189 110.803 10.9163C110.803 14.0506 111.788 16.6446 113.978 18.6981C116.058 20.6436 118.577 21.7244 121.752 21.7244Z" fill="#444E69"/>
<path d="M384.854 21.7244C388.029 21.7244 390.547 20.6436 392.628 18.5901C394.708 16.5365 395.803 13.9425 395.803 10.8082C395.803 7.67381 394.818 5.07984 392.628 3.02629C390.547 1.08082 387.92 0 384.854 0C381.679 0 379.161 1.08082 377.08 3.13437C375 5.18793 373.905 7.78189 373.905 10.9163C373.905 14.0506 374.89 16.6446 377.08 18.6981C379.051 20.6436 381.679 21.7244 384.854 21.7244Z" fill="#444E69"/>
<path d="M61.2044 32.6407H67.0073C72.2628 32.9649 78.8321 34.1538 76.9708 38.6933L64.4891 68.8481L59.8905 79.9805L41.2774 44.2055C38.9781 39.8822 36.2409 36.6397 33.0657 34.37C29.8905 32.1003 25.6204 31.0195 20.146 31.0195H11.1679H6.13139H0V32.5326H0.109489C0.985402 32.5326 7.0073 32.7488 10.073 38.5852L9.85402 38.261V38.369L10.6204 39.8822L47.4088 110.027H52.1168L81.4599 38.5852C83.1022 34.2619 88.3577 32.8569 92.5183 32.5326H98.2117V31.0195H60.9854V32.6407H61.2044Z" fill="#444E69"/>
<path d="M240.328 107.217C234.197 107.217 234.197 101.165 234.197 101.165V62.2551C234.197 55.7702 232.664 49.9338 229.599 44.962C226.533 39.9903 222.044 35.9913 216.131 33.1811C210.219 30.371 203.212 28.9659 195.109 28.9659C185.584 28.9659 178.358 30.5872 173.54 33.9377C168.723 37.2882 166.314 41.2873 166.314 46.0429C166.314 49.6096 167.409 52.4197 169.489 54.4732C171.569 56.6349 174.416 57.6076 178.029 57.6076C179.124 57.6076 180.547 57.4995 182.299 57.2834L184.38 56.851V33.5054L186.569 32.7488C188.102 32.2084 189.964 31.9922 192.153 31.9922C197.956 31.9922 202.336 34.1539 205.073 38.4771C207.92 42.8004 209.343 50.6904 209.343 62.1471V66.7946C200.693 67.2269 190.73 68.3077 179.562 70.2532C174.526 71.1178 169.927 71.9825 165.657 73.0633C164.562 74.5765 163.577 76.3058 162.81 78.1432C161.058 82.0341 160.182 86.0331 160.182 90.0322C160.182 96.0847 162.701 101.165 167.628 105.056C172.664 108.946 179.781 111 188.978 111C195.985 111 201.788 108.622 206.496 103.975C208.467 101.921 210.219 99.5434 211.642 96.9494C212.518 99.3272 213.613 101.273 215.036 102.894C218.431 106.677 223.358 108.622 229.599 108.622H234.307H240.438V107.217H240.328ZM209.124 93.1665C207.92 95.7605 206.715 97.814 205.511 99.3272C202.336 103.434 198.942 105.488 195 105.488C192.263 105.488 190.073 104.083 188.321 101.273C186.569 98.4625 185.693 94.2474 185.693 88.4109C185.693 84.6281 186.241 80.7371 187.226 76.7381C187.774 74.7926 188.212 73.1714 188.759 72.0906C189.854 71.9825 192.044 71.7663 195.328 71.334C199.708 70.7936 204.307 70.5774 209.015 70.5774V93.1665H209.124Z" fill="#444E69"/>
<path d="M135.766 101.056V99.3272V44.962C135.766 35.667 131.058 31.0195 121.752 31.0195H115.949H110.803H104.672V32.5326C110.803 32.5326 110.803 38.5852 110.803 38.5852V38.8014V99.5433V101.056C110.803 101.056 110.803 107.109 104.672 107.109V108.622H141.898V107.109C135.766 107.217 135.766 101.056 135.766 101.056Z" fill="#444E69"/>
<path d="M341.825 101.056V54.3651C341.825 50.0419 340.511 45.9348 337.883 41.9357C335.256 38.0448 331.642 34.8023 327.044 32.4245C322.445 30.0467 317.19 28.7498 311.387 28.7498C304.38 28.7498 298.577 31.1276 293.869 35.7751C291.898 37.7205 290.146 40.0983 288.723 42.8004C287.737 40.5307 286.642 38.5852 285.329 37.0721C281.934 33.2892 277.226 31.3437 271.314 31.2356H260.037V32.7488C266.168 32.7488 266.168 38.8014 266.168 38.8014V39.666V101.273C266.168 101.273 266.168 107.325 260.037 107.325V108.838H266.168H291.131H297.263V107.325C292.336 107.325 291.35 103.434 291.131 101.921V100.408V46.5833C292.117 44.2055 293.212 42.1519 294.526 40.4226C297.701 36.3155 301.204 34.2619 305.146 34.2619C308.321 34.2619 310.949 35.9912 313.358 39.4499C315.657 42.9085 316.861 47.8802 316.861 54.4732V94.7877C316.861 104.083 321.569 108.73 330.876 108.73H336.679H337.007H341.934H348.066V107.217C341.825 107.217 341.825 101.056 341.825 101.056Z" fill="#444E69"/>
<path d="M398.869 101.056V44.962C398.869 35.667 394.161 31.0195 384.854 31.0195H379.051H373.905H367.774V32.5326C373.905 32.5326 373.905 38.5852 373.905 38.5852V38.9094V100.948C373.905 100.948 373.905 107.001 367.774 107.001V108.514H405V107.001C398.869 107.217 398.869 101.056 398.869 101.056Z" fill="#444E69"/>
</g>
<defs>
<clipPath id="clip0">
<rect width="405" height="111" fill="white"/>
</clipPath>
</defs>
</svg>
